{
	"asset":{
		"generator":"Khronos glTF Blender I/O v4.0.44",
		"version":"2.0"
	},
	"scene":0,
	"scenes":[
		{
			"name":"Scene",
			"nodes":[
				0,
				1,
				2,
				3,
				4,
				5,
				6,
				7,
				8,
				9,
				10,
				11,
				12,
				13,
				14,
				15,
				16,
				17,
				18,
				19,
				20,
				21,
				22,
				23,
				24,
				25,
				26
			]
		}
	],
	"nodes":[
		{
			"mesh":0,
			"name":"Cylinder",
			"rotation":[
				0,
				0,
				-0.2588190734386444,
				0.965925931930542
			],
			"scale":[
				0.9860480427742004,
				0.31236007809638977,
				1.0444799661636353
			],
			"translation":[
				0.37937501072883606,
				3.2839877605438232,
				4.632929801940918
			]
		},
		{
			"mesh":1,
			"name":"Cylinder.001",
			"scale":[
				1.3024333715438843,
				0.7583045959472656,
				1.3024333715438843
			],
			"translation":[
				0,
				2.63472843170166,
				-3.139409065246582
			]
		},
		{
			"mesh":2,
			"name":"Plane.001",
			"scale":[
				1.6730773448944092,
				1,
				5.080776691436768
			],
			"translation":[
				5.261701583862305,
				1.10167396068573,
				0
			]
		},
		{
			"mesh":0,
			"name":"Cylinder.002",
			"rotation":[
				0,
				0,
				-0.2588190734386444,
				0.965925931930542
			],
			"scale":[
				0.9860480427742004,
				0.31236007809638977,
				1.0444799661636353
			],
			"translation":[
				0.3499999940395355,
				3.2839934825897217,
				-3.139409065246582
			]
		},
		{
			"mesh":0,
			"name":"Cylinder.003",
			"rotation":[
				0,
				0,
				0.2588190734386444,
				0.965925931930542
			],
			"scale":[
				0.9860480427742004,
				0.31235969066619873,
				1.0444799661636353
			],
			"translation":[
				-0.3499999940395355,
				3.2839934825897217,
				-3.1394100189208984
			]
		},
		{
			"mesh":1,
			"name":"Cylinder.004",
			"scale":[
				1.3024333715438843,
				0.7583045959472656,
				1.3024333715438843
			],
			"translation":[
				0,
				2.63472843170166,
				4.632930755615234
			]
		},
		{
			"mesh":0,
			"name":"Cylinder.005",
			"rotation":[
				0,
				0,
				0.2588190734386444,
				0.965925931930542
			],
			"scale":[
				0.9860480427742004,
				0.31236007809638977,
				1.0444799661636353
			],
			"translation":[
				-0.3499999940395355,
				3.267193555831909,
				4.632929801940918
			]
		},
		{
			"mesh":1,
			"name":"Cylinder.006",
			"rotation":[
				0.7071068286895752,
				0,
				0,
				0.7071068286895752
			],
			"scale":[
				1.3024333715438843,
				2.13102126121521,
				1.3024300336837769
			],
			"translation":[
				0,
				4.08672571182251,
				0.7906008958816528
			]
		},
		{
			"mesh":3,
			"name":"bas toit2.001",
			"rotation":[
				0,
				0,
				-0.8299100995063782,
				0.5578972101211548
			],
			"scale":[
				0.5936160087585449,
				0.40006211400032043,
				1.600000023841858
			],
			"translation":[
				1.9590100049972534,
				2.447030782699585,
				0
			]
		},
		{
			"mesh":4,
			"name":"toit1",
			"rotation":[
				0.2588190734386444,
				-0.965925931930542,
				0,
				2.7251664391769737e-07
			],
			"scale":[
				1.5,
				1.159577488899231,
				4.029000759124756
			],
			"translation":[
				-1.149999976158142,
				3.4743399620056152,
				0.7906010150909424
			]
		},
		{
			"mesh":3,
			"name":"bas toit1",
			"rotation":[
				0,
				0,
				0.8299100995063782,
				0.5578972101211548
			],
			"scale":[
				0.5936160087585449,
				0.4000000059604645,
				1.600000023841858
			],
			"translation":[
				-1.9590100049972534,
				2.349410057067871,
				0
			]
		},
		{
			"mesh":5,
			"name":"toit2",
			"rotation":[
				0,
				0,
				-0.2588190734386444,
				0.965925931930542
			],
			"scale":[
				1.5,
				1.159577488899231,
				4.029000759124756
			],
			"translation":[
				1.149999976158142,
				3.4743399620056152,
				0.7906010150909424
			]
		},
		{
			"mesh":6,
			"name":"Cylinder.007",
			"rotation":[
				-0.1530459225177765,
				-0.1530459225177765,
				-0.6903454661369324,
				0.6903455853462219
			],
			"scale":[
				0.4197235107421875,
				0.4197235107421875,
				0.4197235107421875
			],
			"translation":[
				0,
				0.6963678598403931,
				7.005186080932617
			]
		},
		{
			"mesh":0,
			"name":"Cylinder.008",
			"rotation":[
				0,
				0,
				-0.3826834559440613,
				0.9238795638084412
			],
			"scale":[
				0.48700299859046936,
				0.17527084052562714,
				0.48597007989883423
			],
			"translation":[
				0.2599998414516449,
				2.203833818435669,
				5.146250247955322
			]
		},
		{
			"mesh":1,
			"name":"Cylinder.009",
			"scale":[
				0.50456702709198,
				0.387403279542923,
				0.50456702709198
			],
			"translation":[
				-0.014340639114379883,
				1.6497251987457275,
				5.146250247955322
			]
		},
		{
			"mesh":0,
			"name":"Cylinder.010",
			"rotation":[
				0,
				0,
				0.3826834559440613,
				0.9238795638084412
			],
			"scale":[
				0.48700299859046936,
				0.17527084052562714,
				0.48597007989883423
			],
			"translation":[
				-0.26877346634864807,
				2.1935296058654785,
				5.146250247955322
			]
		},
		{
			"mesh":0,
			"name":"Cylinder.011",
			"rotation":[
				0,
				0,
				-0.7071068286895752,
				0.7071068286895752
			],
			"scale":[
				0.48700299859046936,
				0.24775049090385437,
				0.48597005009651184
			],
			"translation":[
				0,
				2.453347682952881,
				5.146250247955322
			]
		},
		{
			"mesh":0,
			"name":"Cylinder.012",
			"rotation":[
				0.5,
				-0.5,
				-0.5,
				0.5
			],
			"scale":[
				0.48700299859046936,
				0.4511384963989258,
				0.48597005009651184
			],
			"translation":[
				-0.0013021837221458554,
				2.241076946258545,
				6.099096775054932
			]
		},
		{
			"mesh":7,
			"name":"toit1.001",
			"rotation":[
				0.2588190734386444,
				-0.965925931930542,
				0,
				2.7251664391769737e-07
			],
			"scale":[
				1.5,
				1.159577488899231,
				4.029000759124756
			],
			"translation":[
				-1.149999976158142,
				3.4743399620056152,
				0.7906010150909424
			]
		},
		{
			"mesh":8,
			"name":"toit2.001",
			"rotation":[
				0,
				0,
				-0.2588190734386444,
				0.965925931930542
			],
			"scale":[
				1.5,
				1.159577488899231,
				4.029000759124756
			],
			"translation":[
				1.149999976158142,
				3.4743399620056152,
				0.7906010150909424
			]
		},
		{
			"name":"toit1.002",
			"rotation":[
				0.2588190734386444,
				-0.965925931930542,
				0,
				2.7251664391769737e-07
			],
			"scale":[
				1.5,
				1.159577488899231,
				4.029000759124756
			],
			"translation":[
				-1.149999976158142,
				3.4743399620056152,
				0.7906010150909424
			]
		},
		{
			"name":"toit2.002",
			"rotation":[
				0,
				0,
				-0.2588190734386444,
				0.965925931930542
			],
			"scale":[
				1.5,
				1.159577488899231,
				4.029000759124756
			],
			"translation":[
				1.149999976158142,
				3.4743399620056152,
				0.7906010150909424
			]
		},
		{
			"name":"Mesh"
		},
		{
			"name":"Mesh.001"
		},
		{
			"mesh":9,
			"name":"boat.002",
			"rotation":[
				0,
				0,
				-0.7071068286895752,
				0.7071068286895752
			],
			"scale":[
				1,
				1,
				6.429705619812012
			],
			"translation":[
				0.005553483963012695,
				0.9361502528190613,
				0
			]
		},
		{
			"mesh":10,
			"name":"boat.001",
			"rotation":[
				0,
				0,
				-0.7071068286895752,
				0.7071068286895752
			],
			"scale":[
				1,
				1,
				6.520570755004883
			],
			"translation":[
				0.005553483963012695,
				0.9361502528190613,
				0
			]
		},
		{
			"mesh":11,
			"name":"boat.003",
			"rotation":[
				0,
				0,
				-0.7071068286895752,
				0.7071068286895752
			],
			"scale":[
				1,
				1,
				6.476149559020996
			],
			"translation":[
				0.005553483963012695,
				0.9361502528190613,
				0
			]
		}
	],
	"materials":[
		{
			"doubleSided":true,
			"name":"Material.002",
			"pbrMetallicRoughness":{
				"baseColorTexture":{
					"index":0
				},
				"metallicFactor":0
			}
		},
		{
			"doubleSided":true,
			"name":"Material.003",
			"pbrMetallicRoughness":{
				"baseColorTexture":{
					"index":1
				},
				"metallicFactor":0
			}
		},
		{
			"doubleSided":true,
			"name":"Material.004",
			"pbrMetallicRoughness":{
				"baseColorTexture":{
					"index":2
				},
				"metallicFactor":0
			}
		},
		{
			"doubleSided":true,
			"name":"toit paille",
			"pbrMetallicRoughness":{
				"baseColorTexture":{
					"index":3
				},
				"metallicFactor":0
			}
		},
		{
			"doubleSided":true,
			"name":"Material",
			"pbrMetallicRoughness":{
				"baseColorTexture":{
					"index":4
				},
				"metallicFactor":0.800000011920929
			}
		},
		{
			"doubleSided":true,
			"name":"toit paille",
			"pbrMetallicRoughness":{
				"baseColorTexture":{
					"index":5
				},
				"metallicFactor":0
			}
		},
		{
			"doubleSided":true,
			"name":"Material.001",
			"pbrMetallicRoughness":{
				"baseColorTexture":{
					"index":6
				},
				"metallicFactor":0
			}
		}
	],
	"meshes":[
		{
			"name":"Cylinder",
			"primitives":[
				{
					"attributes":{
						"POSITION":0,
						"NORMAL":1,
						"TEXCOORD_0":2
					},
					"indices":3,
					"material":0
				}
			]
		},
		{
			"name":"Cylinder.001",
			"primitives":[
				{
					"attributes":{
						"POSITION":4,
						"NORMAL":5,
						"TEXCOORD_0":6
					},
					"indices":7,
					"material":0
				}
			]
		},
		{
			"name":"Plane.001",
			"primitives":[
				{
					"attributes":{
						"POSITION":8,
						"NORMAL":9,
						"TEXCOORD_0":10
					},
					"indices":11,
					"material":1
				}
			]
		},
		{
			"name":"Plane.004",
			"primitives":[
				{
					"attributes":{
						"POSITION":12,
						"NORMAL":13,
						"TEXCOORD_0":14
					},
					"indices":15,
					"material":2
				}
			]
		},
		{
			"name":"Plane.002",
			"primitives":[
				{
					"attributes":{
						"POSITION":16,
						"NORMAL":17,
						"TEXCOORD_0":18
					},
					"indices":19,
					"material":3
				}
			]
		},
		{
			"name":"Plane.002",
			"primitives":[
				{
					"attributes":{
						"POSITION":20,
						"NORMAL":21,
						"TEXCOORD_0":22
					},
					"indices":19,
					"material":3
				}
			]
		},
		{
			"name":"Cylinder.002",
			"primitives":[
				{
					"attributes":{
						"POSITION":23,
						"NORMAL":24,
						"TEXCOORD_0":25
					},
					"indices":26,
					"material":4
				}
			]
		},
		{
			"name":"Plane.003",
			"primitives":[
				{
					"attributes":{
						"POSITION":27,
						"NORMAL":28,
						"TEXCOORD_0":29
					},
					"indices":19,
					"material":5
				}
			]
		},
		{
			"name":"Plane.005",
			"primitives":[
				{
					"attributes":{
						"POSITION":30,
						"NORMAL":31,
						"TEXCOORD_0":32
					},
					"indices":19,
					"material":5
				}
			]
		},
		{
			"name":"Grid.007",
			"primitives":[
				{
					"attributes":{
						"POSITION":33,
						"NORMAL":34,
						"TEXCOORD_0":35
					},
					"indices":36,
					"material":2
				}
			]
		},
		{
			"name":"Mesh",
			"primitives":[
				{
					"attributes":{
						"POSITION":37,
						"NORMAL":38,
						"TEXCOORD_0":39
					},
					"indices":40,
					"material":6
				}
			]
		},
		{
			"name":"Mesh",
			"primitives":[
				{
					"attributes":{
						"POSITION":41,
						"NORMAL":42,
						"TEXCOORD_0":43
					},
					"indices":44,
					"material":6
				}
			]
		}
	],
	"textures":[
		{
			"sampler":0,
			"source":0
		},
		{
			"sampler":1,
			"source":1
		},
		{
			"sampler":2,
			"source":0
		},
		{
			"sampler":2,
			"source":2
		},
		{
			"sampler":2,
			"source":3
		},
		{
			"sampler":2,
			"source":2
		},
		{
			"sampler":2,
			"source":4
		}
	],
	"images":[
		{
			"mimeType":"image/jpeg",
			"name":"fine_grained_wood_col_4k",
			"uri":"fine_grained_wood_col_4k.jpg"
		},
		{
			"mimeType":"image/jpeg",
			"name":"dark_wooden_planks_diff_4k",
			"uri":"dark_wooden_planks_diff_4k.jpg"
		},
		{
			"mimeType":"image/jpeg",
			"name":"straw",
			"uri":"straw.jpg"
		},
		{
			"mimeType":"image/jpeg",
			"name":"sakura_bark_diff_4k",
			"uri":"sakura_bark_diff_4k.jpg"
		},
		{
			"mimeType":"image/jpeg",
			"name":"wood_plank_wall_diff_4k",
			"uri":"wood_plank_wall_diff_4k.jpg"
		}
	],
	"accessors":[
		{
			"bufferView":0,
			"componentType":5126,
			"count":260,
			"max":[
				0.07731454074382782,
				2.061901569366455,
				0.07322359085083008
			],
			"min":[
				-0.07731543481349945,
				-2.076385974884033,
				-0.05923913046717644
			],
			"type":"VEC3"
		},
		{
			"bufferView":1,
			"componentType":5126,
			"count":260,
			"type":"VEC3"
		},
		{
			"bufferView":2,
			"componentType":5126,
			"count":260,
			"type":"VEC2"
		},
		{
			"bufferView":3,
			"componentType":5123,
			"count":408,
			"type":"SCALAR"
		},
		{
			"bufferView":4,
			"componentType":5126,
			"count":260,
			"max":[
				0.06963977217674255,
				2.061901569366455,
				0.07322359085083008
			],
			"min":[
				-0.06963977217674255,
				-2.061901569366455,
				-0.07322359085083008
			],
			"type":"VEC3"
		},
		{
			"bufferView":5,
			"componentType":5126,
			"count":260,
			"type":"VEC3"
		},
		{
			"bufferView":6,
			"componentType":5126,
			"count":260,
			"type":"VEC2"
		},
		{
			"bufferView":7,
			"componentType":5123,
			"count":408,
			"type":"SCALAR"
		},
		{
			"bufferView":8,
			"componentType":5126,
			"count":404,
			"max":[
				-2.373234748840332,
				0,
				1
			],
			"min":[
				-3.91400146484375,
				0,
				-1
			],
			"type":"VEC3"
		},
		{
			"bufferView":9,
			"componentType":5126,
			"count":404,
			"type":"VEC3"
		},
		{
			"bufferView":10,
			"componentType":5126,
			"count":404,
			"type":"VEC2"
		},
		{
			"bufferView":11,
			"componentType":5123,
			"count":1206,
			"type":"SCALAR"
		},
		{
			"bufferView":12,
			"componentType":5126,
			"count":45,
			"max":[
				0.9999999403953552,
				0.032006051391363144,
				1
			],
			"min":[
				-1,
				0,
				-1
			],
			"type":"VEC3"
		},
		{
			"bufferView":13,
			"componentType":5126,
			"count":45,
			"type":"VEC3"
		},
		{
			"bufferView":14,
			"componentType":5126,
			"count":45,
			"type":"VEC2"
		},
		{
			"bufferView":15,
			"componentType":5123,
			"count":90,
			"type":"SCALAR"
		},
		{
			"bufferView":16,
			"componentType":5126,
			"count":22,
			"max":[
				0.9999999403953552,
				2.2626875306741567e-07,
				1
			],
			"min":[
				-1,
				0,
				-1
			],
			"type":"VEC3"
		},
		{
			"bufferView":17,
			"componentType":5126,
			"count":22,
			"type":"VEC3"
		},
		{
			"bufferView":18,
			"componentType":5126,
			"count":22,
			"type":"VEC2"
		},
		{
			"bufferView":19,
			"componentType":5123,
			"count":60,
			"type":"SCALAR"
		},
		{
			"bufferView":20,
			"componentType":5126,
			"count":22,
			"max":[
				0.9999999403953552,
				2.2626875306741567e-07,
				1
			],
			"min":[
				-1,
				0,
				-1
			],
			"type":"VEC3"
		},
		{
			"bufferView":21,
			"componentType":5126,
			"count":22,
			"type":"VEC3"
		},
		{
			"bufferView":22,
			"componentType":5126,
			"count":22,
			"type":"VEC2"
		},
		{
			"bufferView":23,
			"componentType":5126,
			"count":196,
			"max":[
				1.646758794784546,
				0.13621604442596436,
				1.5559186935424805
			],
			"min":[
				-3.6595466136932373,
				-0.13621608912944794,
				-0.6262782216072083
			],
			"type":"VEC3"
		},
		{
			"bufferView":24,
			"componentType":5126,
			"count":196,
			"type":"VEC3"
		},
		{
			"bufferView":25,
			"componentType":5126,
			"count":196,
			"type":"VEC2"
		},
		{
			"bufferView":26,
			"componentType":5123,
			"count":378,
			"type":"SCALAR"
		},
		{
			"bufferView":27,
			"componentType":5126,
			"count":22,
			"max":[
				0.9999999403953552,
				2.2626875306741567e-07,
				1
			],
			"min":[
				-1,
				0,
				-1
			],
			"type":"VEC3"
		},
		{
			"bufferView":28,
			"componentType":5126,
			"count":22,
			"type":"VEC3"
		},
		{
			"bufferView":29,
			"componentType":5126,
			"count":22,
			"type":"VEC2"
		},
		{
			"bufferView":30,
			"componentType":5126,
			"count":22,
			"max":[
				0.9999999403953552,
				2.2626875306741567e-07,
				1
			],
			"min":[
				-1,
				0,
				-1
			],
			"type":"VEC3"
		},
		{
			"bufferView":31,
			"componentType":5126,
			"count":22,
			"type":"VEC3"
		},
		{
			"bufferView":32,
			"componentType":5126,
			"count":22,
			"type":"VEC2"
		},
		{
			"bufferView":33,
			"componentType":5126,
			"count":81823,
			"max":[
				0.9176492094993591,
				1.8841447830200195,
				1.0316216945648193
			],
			"min":[
				-0.9890268445014954,
				-1.8841447830200195,
				-1.0316216945648193
			],
			"type":"VEC3"
		},
		{
			"bufferView":34,
			"componentType":5126,
			"count":81823,
			"type":"VEC3"
		},
		{
			"bufferView":35,
			"componentType":5126,
			"count":81823,
			"type":"VEC2"
		},
		{
			"bufferView":36,
			"componentType":5125,
			"count":143232,
			"type":"SCALAR"
		},
		{
			"bufferView":37,
			"componentType":5126,
			"count":4224,
			"max":[
				-0.442229688167572,
				1.73363196849823,
				1.0277435779571533
			],
			"min":[
				-0.7696616053581238,
				-1.73363196849823,
				-1.0216870307922363
			],
			"type":"VEC3"
		},
		{
			"bufferView":38,
			"componentType":5126,
			"count":4224,
			"type":"VEC3"
		},
		{
			"bufferView":39,
			"componentType":5126,
			"count":4224,
			"type":"VEC2"
		},
		{
			"bufferView":40,
			"componentType":5123,
			"count":6336,
			"type":"SCALAR"
		},
		{
			"bufferView":41,
			"componentType":5126,
			"count":4296,
			"max":[
				0.05078975111246109,
				1.3925981521606445,
				0.9996281266212463
			],
			"min":[
				-0.5160942077636719,
				-1.3925981521606445,
				-0.9951967597007751
			],
			"type":"VEC3"
		},
		{
			"bufferView":42,
			"componentType":5126,
			"count":4296,
			"type":"VEC3"
		},
		{
			"bufferView":43,
			"componentType":5126,
			"count":4296,
			"type":"VEC2"
		},
		{
			"bufferView":44,
			"componentType":5123,
			"count":6444,
			"type":"SCALAR"
		}
	],
	"bufferViews":[
		{
			"buffer":0,
			"byteLength":3120,
			"byteOffset":0,
			"target":34962
		},
		{
			"buffer":0,
			"byteLength":3120,
			"byteOffset":3120,
			"target":34962
		},
		{
			"buffer":0,
			"byteLength":2080,
			"byteOffset":6240,
			"target":34962
		},
		{
			"buffer":0,
			"byteLength":816,
			"byteOffset":8320,
			"target":34963
		},
		{
			"buffer":0,
			"byteLength":3120,
			"byteOffset":9136,
			"target":34962
		},
		{
			"buffer":0,
			"byteLength":3120,
			"byteOffset":12256,
			"target":34962
		},
		{
			"buffer":0,
			"byteLength":2080,
			"byteOffset":15376,
			"target":34962
		},
		{
			"buffer":0,
			"byteLength":816,
			"byteOffset":17456,
			"target":34963
		},
		{
			"buffer":0,
			"byteLength":4848,
			"byteOffset":18272,
			"target":34962
		},
		{
			"buffer":0,
			"byteLength":4848,
			"byteOffset":23120,
			"target":34962
		},
		{
			"buffer":0,
			"byteLength":3232,
			"byteOffset":27968,
			"target":34962
		},
		{
			"buffer":0,
			"byteLength":2412,
			"byteOffset":31200,
			"target":34963
		},
		{
			"buffer":0,
			"byteLength":540,
			"byteOffset":33612,
			"target":34962
		},
		{
			"buffer":0,
			"byteLength":540,
			"byteOffset":34152,
			"target":34962
		},
		{
			"buffer":0,
			"byteLength":360,
			"byteOffset":34692,
			"target":34962
		},
		{
			"buffer":0,
			"byteLength":180,
			"byteOffset":35052,
			"target":34963
		},
		{
			"buffer":0,
			"byteLength":264,
			"byteOffset":35232,
			"target":34962
		},
		{
			"buffer":0,
			"byteLength":264,
			"byteOffset":35496,
			"target":34962
		},
		{
			"buffer":0,
			"byteLength":176,
			"byteOffset":35760,
			"target":34962
		},
		{
			"buffer":0,
			"byteLength":120,
			"byteOffset":35936,
			"target":34963
		},
		{
			"buffer":0,
			"byteLength":264,
			"byteOffset":36056,
			"target":34962
		},
		{
			"buffer":0,
			"byteLength":264,
			"byteOffset":36320,
			"target":34962
		},
		{
			"buffer":0,
			"byteLength":176,
			"byteOffset":36584,
			"target":34962
		},
		{
			"buffer":0,
			"byteLength":2352,
			"byteOffset":36760,
			"target":34962
		},
		{
			"buffer":0,
			"byteLength":2352,
			"byteOffset":39112,
			"target":34962
		},
		{
			"buffer":0,
			"byteLength":1568,
			"byteOffset":41464,
			"target":34962
		},
		{
			"buffer":0,
			"byteLength":756,
			"byteOffset":43032,
			"target":34963
		},
		{
			"buffer":0,
			"byteLength":264,
			"byteOffset":43788,
			"target":34962
		},
		{
			"buffer":0,
			"byteLength":264,
			"byteOffset":44052,
			"target":34962
		},
		{
			"buffer":0,
			"byteLength":176,
			"byteOffset":44316,
			"target":34962
		},
		{
			"buffer":0,
			"byteLength":264,
			"byteOffset":44492,
			"target":34962
		},
		{
			"buffer":0,
			"byteLength":264,
			"byteOffset":44756,
			"target":34962
		},
		{
			"buffer":0,
			"byteLength":176,
			"byteOffset":45020,
			"target":34962
		},
		{
			"buffer":0,
			"byteLength":981876,
			"byteOffset":45196,
			"target":34962
		},
		{
			"buffer":0,
			"byteLength":981876,
			"byteOffset":1027072,
			"target":34962
		},
		{
			"buffer":0,
			"byteLength":654584,
			"byteOffset":2008948,
			"target":34962
		},
		{
			"buffer":0,
			"byteLength":572928,
			"byteOffset":2663532,
			"target":34963
		},
		{
			"buffer":0,
			"byteLength":50688,
			"byteOffset":3236460,
			"target":34962
		},
		{
			"buffer":0,
			"byteLength":50688,
			"byteOffset":3287148,
			"target":34962
		},
		{
			"buffer":0,
			"byteLength":33792,
			"byteOffset":3337836,
			"target":34962
		},
		{
			"buffer":0,
			"byteLength":12672,
			"byteOffset":3371628,
			"target":34963
		},
		{
			"buffer":0,
			"byteLength":51552,
			"byteOffset":3384300,
			"target":34962
		},
		{
			"buffer":0,
			"byteLength":51552,
			"byteOffset":3435852,
			"target":34962
		},
		{
			"buffer":0,
			"byteLength":34368,
			"byteOffset":3487404,
			"target":34962
		},
		{
			"buffer":0,
			"byteLength":12888,
			"byteOffset":3521772,
			"target":34963
		}
	],
	"samplers":[
		{
			"magFilter":9729,
			"minFilter":9987,
			"wrapS":33648,
			"wrapT":33648
		},
		{
			"magFilter":9728,
			"minFilter":9984,
			"wrapS":33071,
			"wrapT":33071
		},
		{
			"magFilter":9729,
			"minFilter":9987
		}
	],
	"buffers":[
		{
			"byteLength":3534660,
			"uri":"kabang.bin"
		}
	]
}
