<?xml version="1.0" encoding="utf-8"?>
<!-- Generator: Adobe Illustrator 28.3.0, SVG Export Plug-In . SVG Version: 6.00 Build 0)  -->
<svg version="1.1" id="Calque_1" xmlns="http://www.w3.org/2000/svg" xmlns:xlink="http://www.w3.org/1999/xlink" x="0px" y="0px"
	 viewBox="0 0 1280 640" style="enable-background:new 0 0 1280 640;" xml:space="preserve">
<style type="text/css">
	.st0{fill:#FFFFFF;}
</style>
<g transform="translate(0.000000,640.000000) scale(0.100000,-0.100000)">
	<path class="st0" d="M4875,6361c-49-3-99-11-110-17s-90-14-175-17c-141-5-378-32-390-45c-3-2,1-7,8-9c13-5,17-33,5-33
		c-5-1-57-7-117-14c-116-15-141-28-107-57c18-15,48-22,194-48c99-18,141-65,102-117c-22-30-18-40,23-51l37-10l-42-8
		c-34-6-43-12-43-28c0-17,5-19,34-14c28,4,34,3,29-9c-3-8-15-14-28-14c-14,0-33-13-49-34c-24-31-26-43-26-124c0-100,22-190,48-198
		c9-3,36-14,59-25c58-29,94-19,136,35c18,24,61,74,95,111l62,68l98,22c71,16,113,32,152,58c53,35,278,112,345,119c28,3,30,6,33,45
		c3,45,24,69,93,106c24,14,29,21,20,27c-18,10-6,60,14,60c23,0,27,18,10,49c-17,34-15,36,55,57c27,8,78,28,112,45l63,30l-70-6
		c-38-3-80-8-92-11c-12-2-25,2-30,10c-4,7-50,23-101,35C5225,6371,5089,6374,4875,6361z"/>
	<path class="st0" d="M3910,6339c-82-15-340-39-355-33c-9,4-34-6-57-22c-28-20-43-25-45-16c-9,25-23,11-23-22c0-44,30-68,73-59
		c58,12,18-16-54-37c-63-19-73-20-87-6c-10,8-35,16-57,18c-37,3-40,1-45-27c-4-25-10-30-35-30c-22,0-29,4-27,17c3,19-2,23-45,32
		c-29,7-33,4-48-24c-9-18-15-34-12-36c2-3,44-9,93-15l89-10l21,27c21,26,48,26,38,1c-8-22,109-39,179-28c32,6,71,8,85,5
		c29-6,73,19,59,33c-5,4-53,8-107,8c-97,0-98,0-71,18c21,15,43,17,116,15c50-1,95,1,102,5c6,4,18,4,27,1c8-3,59,15,113,41
		c98,47,178,73,308,100c174,35,195,40,195,45C4340,6349,3958,6348,3910,6339z"/>
	<path class="st0" d="M3323,6240c-20-8-21-12-12-34c11-23,42-40,53-28c3,3,6,20,6,39C3370,6252,3362,6256,3323,6240z"/>
	<path class="st0" d="M2927,6224c-16-8-37-24-48-35c-19-19-19-19,7-19c32,0,96,38,91,53C2972,6240,2957,6240,2927,6224z"/>
	<path class="st0" d="M3137,6233c-15-15-4-23,48-38c41-12,59-14,75-5c28,15,19,25-34,39C3175,6242,3146,6243,3137,6233z"/>
	<path class="st0" d="M2650,6168c-41-11-92-22-112-25c-46-6-40-23,8-23c21,0,42-8,54-20c11-11,29-20,39-20c11,0,33-8,49-17
		c29-17,33-17,79,0c26,9,74,17,105,17c41,0,61,5,74,18c17,16,17,17,0,20c-10,2-15,10-12,18c8,20-17,17-59-7c-37-22-51-22-119,4
		c-22,8-34,17-27,21c12,8,15,36,4,35C2728,6189,2691,6179,2650,6168z"/>
	<path class="st0" d="M8720,6171c-14-4-25-12-25-19c0-22-28-32-91-32c-64,0-218-25-244-40c-13-8-13-10,3-15c37-15,13-25-60-25l-78-1
		l35-29c19-17,46-30,60-30c23-1,23-2,6-12c-14-8-27-7-53,6c-33,16-104,22-116,10c-11-12,5-34,26-34c15,0,18-3,10-11
		c-19-19-52,1-73,42c-11,22-28,39-37,39c-14,0-13-4,6-24s20-24,7-29c-23-9-19-31,7-42c12-6,23-20,25-32c5-35,27-47,64-34
		c21,8,35,8,42,1c10-10-3-14-31-11c-18,2-26-18-14-33c20-24-7-66-41-66c-30,0-38,14-13,24c22,8,19,59-5,74c-11,6-28,29-39,51
		c-11,21-27,41-36,44c-8,4-15,18-15,32c0,18-5,25-19,25c-11,0-27,7-35,16c-24,24-54,9-62-31c-3-18-13-36-21-40c-14-5-14-7-1-23
		c8-9,18-24,21-34c3-9,20-19,37-23c28-6,50-29,38-40c-2-2-38,7-79,21c-40,14-99,28-129,31s-65,12-77,19c-12,8-29,14-38,14
		c-28,0-15-17,26-33c37-14,40-19,29-32c-12-15-15-14-24,4c-9,16-15,18-31,9c-11-7-35-15-55-19c-19-3-43-10-52-14c-13-5-18-2-18,9
		c0,9-7,16-16,16c-25,0-148-51-160-66s-46-19-57-7c-4,3-2,12,4,20c18,21-8,43-51,43h-38l24-46c27-52,25-62-9-47c-18,8-28,7-46-8
		c-13-11-30-19-38-19c-10,0-12-6-8-19c6-21-10-38-20-21c-8,13-85,13-85,0c0-5,11-12,25-16c14-3,25-11,25-16c0-13-46-2-85,21
		c-17,10-30,25-30,37c0,10-9,24-20,31c-19,12-19,12,5,12c14,0,50-4,80-8c70-11,130,9,130,43c0,20-8,25-57,35c-32,7-107,26-166,42
		c-60,17-115,28-124,25c-10-4-13-1-8,13c5,16-2,21-42,29c-33,7-52,7-60,0c-8-6-31-8-56-5c-48,7-162-19-274-61c-69-26-91-42-58-42
		c8,0,15-4,15-10c0-10-51-60-61-60c-9,0-49-68-49-82c0-24-32-48-50-38c-51,27-160-51-160-116c0-19,6-37,13-40c8-3,12-16,9-33
		c-3-24,1-30,31-44c45-22,44-22,96,13c50,34,61,37,61,15c0-9,11-33,25-54c26-38,25-71,0-71c-7,0-20-3-28-6c-12-4-14,0-10,14
		c2,11,0,23-6,26c-5,4-8,13-4,21c9,25-35,18-62-10c-29-28-31-54-9-97c19-38,11-48-47-55c-65-8-97-28-101-60c-2-23-13-33-56-53
		c-28-14-55-33-58-43s-20-24-37-31c-27-11-36-11-59,1c-31,15-32,14-19-20c9-24,9-25-29-20c-44,6-90-3-90-17c0-5,21-21,48-34
		c60-30,86-78,76-142c-4-29-12-45-24-49c-26-8-183-3-203,7c-12,6-29,5-48-4c-29-13-30-15-24-63c4-36,1-65-14-105c-13-37-16-60-10-72
		c5-9,9-29,9-43c0-25,2-26,39-20c36,6,40,4,58-27s19-35,3-70c-10-24-37-52-71-77c-61-44-79-73-79-130c0-33-7-45-50-85
		c-27-25-58-46-69-46s-26-10-32-22c-7-13-27-40-46-61s-32-45-29-52c2-7-8-25-24-40c-15-15-31-42-34-60c-4-18-13-38-21-45
		c-19-16-19-60-1-86c10-13,11-23,4-31c-6-8-6-18,1-32c6-11,11-32,11-48c-1-37-35-136-49-141c-17-6-13-29,5-36c12-5,15-14,10-40
		c-8-44,8-84,38-95c34-13,92-88,107-139c13-46,26-58,156-150l72-51l43,19c47,21,147,27,178,10c15-8,36-3,94,25c133,63,204,56,240-23
		l17-39l53,5c39,3,60,0,80-13c23-15,26-24,26-76c0-34-8-79-19-107l-20-49l56-84c67-99,137-263,124-288c-6-10-4-28,5-50
		c20-48,17-88-12-156c-66-156-63-204,20-380c51-109,56-126,56-188c0-59,5-77,38-140c79-154,106-227,82-227c-13,0,32-87,49-95
		c7-3,43,2,78,11c36,9,78,13,95,10c18-3,41,0,58,9c16,8,42,15,58,15c30,0,72,40,198,186c66,77,66,77,73,143c6,54,8,57,58,89
		c44,29,53,40,58,73c4,22,1,69-6,104l-13,65l60,55c32,30,79,66,104,79c71,38,78,50,86,151c6,83,4,100-26,203c-42,150-42,181-3,265
		c35,74,168,235,239,288c44,33,149,192,200,303c43,94,43,203,1,167c-7-5-40-14-72-20c-33-5-86-18-117-29l-57-19l-26,27
		c-15,16-23,33-20,42c7,18-81,126-147,180c-33,27-48,49-58,82c-7,24-23,55-36,67c-17,16-24,33-24,59s-15,63-49,122
		c-27,47-65,122-84,166c-35,80-35,81-14,88c26,8,68-38,128-138c21-37,43-70,48-73c6-3,15-30,21-60c9-44,20-63,51-92
		c21-20,41-45,45-57c3-12,19-34,34-51c49-53,63-99,18-58c-15,14-18,14-18,1c0-8,9-23,20-33c10-9,29-47,41-84c12-36,27-69,33-73
		c15-11,69,1,82,18c6,8,25,14,43,14c28,0,48,7,91,32c8,5,43,22,76,39c34,16,64,38,66,47c3,11,26,24,61,35c37,12,58,24,62,37
		c4,11,12,20,20,20c22,0,75,60,75,85c0,15,7,25,21,28c12,3,18,10,14,16c-3,6,3,24,14,40c12,16,21,34,21,40c0,18-63,70-85,71
		c-37,1-65,37-65,84c0,35-9,33-55-14c-38-39-104-68-125-55c-6,3-10,19-10,34s-9,36-20,46c-18,16-20,16-26,1c-9-23-23-11-44,38
		c-10,22-29,52-44,65c-32,30-35,75-7,91c39,21,57,12,92-46c27-45,46-64,93-89c60-33,82-34,120-9c20,14,62,1,51-16
		c-20-33,87-59,270-66l120-5l40-38c22-22,56-47,75-57c19-9,29-19,23-21c-22-8-14-30,22-62c31-27,38-29,60-19c14,6,25,19,25,29
		s4,20,9,23c10,7,21-27,21-70c0-52,55-223,119-368c33-76,65-155,71-177c15-54,45-62,80-19c23,28,29,31,46,20c16-10,20-24,20-68
		c1-41,6-59,19-69c16-11,21-10,36,3c10,9,22,29,28,44c8,25,5,35-19,68c-35,48-50,59-60,42c-9-15-30-5-30,15c0,7,6,15,14,18
		c12,5,14,31,13,133l-2,127l27,9c15,5,30,17,33,27s30,38,59,64c30,26,58,56,61,67c4,11,20,27,36,35c20,11,29,23,29,39
		c0,34,17,43,85,44c47,0,63,5,76,21c19,23,31,15,44-29c12-42,54-90,71-83c13,5,15,2,9-16c-5-17,0-27,19-42c22-18,26-28,26-75
		c0-49,2-54,26-60c17-5,32-1,47,13c58,50,53,53,86-54c39-127,52-185,43-198c-4-5-7-39-7-75c0-56,2-65,17-62c27,4,98-113,91-150
		c-7-36,34-98,83-124c19-11,42-29,50-41c35-54,47-7,14,57c-11,22-20,55-20,74c0,39-54,111-114,152c-24,17-36,32-36,49
		c0,13-12,38-26,55l-27,31l16,57c9,31,18,68,19,82c4,36,34,33,31-3c-2-24,1-27,19-22c15,5,31-4,64-37c24-23,44-48,44-55
		c0-6,10-13,23-15c17-2,22-10,24-36c1-19,3-35,5-38c8-7,78,57,78,72c0,7,11,16,24,20c13,3,36,19,51,34c25,27,27,34,22,83
		c-7,73-22,99-112,197c-49,53-75,90-75,105c0,36,77,105,117,105c27,0,32-4,35-27c4-36,38-45,38-11c0,25,41,51,66,41c8-3,22,1,32,8
		c15,13,51,31,107,55c47,20,113,108,139,184c31,92,45,191,25,173c-18-18-43-16-35,2c3,8,9,22,12,30c4,10,0,15-11,15s-15,5-11,15
		c7,19-73,113-123,146l-24,15l32,47c20,29,39,47,51,47c11,0,20,6,20,14c0,20-77,25-111,7c-24-12-28-11-52,13c-14,14-33,26-42,26
		c-25,0-17,16,35,70c48,50,77,58,67,19c-5-20,13-69,25-69c4,0,12,8,17,19c13,24,52,34,85,21c21-8,26-16,26-44c0-33,2-34,50-46
		c44-10,50-15,44-32c-4-13,0-24,12-32c11-8,17-26,17-47c0-52,12-61,55-43c20,8,44,22,53,30c16,15,16,19-4,66c-16,39-32,58-78,89
		c-32,21-60,43-63,47c-3,5,6,20,19,32c18,17,25,34,25,62c0,42,31,84,56,74c8-3,20-9,28-12c24-9,64,38,80,98c9,31,16,87,16,125
		c0,63-4,77-43,149c-64,118-68,123-116,145c-52,23-77,24-85,4c-9-24-20-18-45,23c-22,36-22,36-16,7c6-28,6-29-13-12
		c-10,9-26,17-35,17c-26,0-30,18-9,45c11,14,23,42,26,62c14,77,23,90,73,97c80,11,253,7,253-5c0-8,17-10,56-6c55,6,80,16,58,24
		c-37,13-44,27-32,66c10,34,15,37,47,37c26,0,44-8,68-32l33-32l24,23c20,19,23,26,13,42c-12,20-5,35,12,24c6-3,18-19,26-35
		c13-25,13-33,0-70c-8-24-15-51-15-61s-8-24-18-30c-17-11-18-15-5-53c9-24,31-54,56-76c23-19,79-70,125-113s87-75,93-72
		c13,9,11,62-3,71c-8,5-5,11,7,20c17,13,17,15,2,32c-19,20-7,50,14,36c8-4,2,7-13,25c-31,36-36,53-13,45c31-12,14,13-20,29
		c-19,9-35,23-35,32c0,8-12,17-27,21c-49,10-54,14-51,32c2,11-3,26-10,34c-10,13-8,17,19,28c25,11,35,11,51,1c17-10,23-9,39,5
		c18,16,22,16,59,1c27-10,40-12,40-4c0,23,53,86,82,98c23,9,38,10,59,2c50-19,43,6-8,27c-26,11-62,28-80,37c-31,16-31,17-12,31
		c12,8,18,20,15,29c-5,13,2,14,46,8c29-4,67-16,85-26c37-23,133-38,133-21c0,6-8,16-17,21c-16,9-16,12-3,21c25,17-10,35-92,49
		c-40,6-158,34-263,61c-104,27-246,56-315,65s-133,18-144,20c-15,3-13-2,10-26l29-31l-25,6c-102,21-144,26-239,26
		c-93,0-110,3-125,19c-23,25-46,29-221,40c-86,6-165,16-185,24c-39,16-307,43-318,32c-4-3,4-15,18-26l25-21l-93,7c-51,3-99,8-107,11
		c-11,5-15-1-15-20c0-14-2-26-4-26c-16,0-106,47-126,66c-25,23-138,54-197,54c-21,0-24-2-13-15s3-15-58-15c-39,0-74,5-77,10
		c-3,6-38,10-77,10c-54,0-76,5-98,20c-28,20-50,19-80-5c-15-12-80-29-80-20c0,2,23,16,50,31c49,27,57,38,42,59c-12,17-99,35-171,35
		c-52,0-70,4-75,15C8850,6181,8769,6185,8720,6171z M6690,5707c0-6-27-30-60-52l-59-40l1-57c1-86,14-95,125-78c128,19,159,16,134-14
		c-8-10-31-14-74-14c-34,1-73-4-86-12l-25-13l23-18c17-14,22-25,17-44c-7-29-18-32-36-10c-7,8-20,15-30,15c-30,0-43-26-36-70
		c6-38,5-40-33-60c-39-19-40-19-53-1c-13,19-15,18-68-5c-65-28-86-29-98-8c-8,15-12,15-41-1c-39-20-49-15-21,10c11,10,20,24,20,31
		c0,15,55,9,78-9c8-6,12-6,12,1c0,6-5,14-10,17c-16,10-1,25,26,25s46,34,38,66c-5,23,2,34,44,63c17,12,32,25,32,29s-14,15-30,24
		c-60,34-26,119,63,156c15,6,27,17,27,25c0,7,7,23,16,35c12,17,25,22,60,22C6675,5720,6690,5716,6690,5707z M7249,4855
		c-12-19-25-35-30-35c-24,0-3-22,49-51c60-34,142-105,142-125c0-6-8-18-17-26c-24-21-143-9-199,20c-39,20-44,20-104,6
		c-35-8-69-19-76-25c-17-14-78-1-107,22c-18,14-23,25-19,48c2,17,8,31,12,31c5,0,11,13,15,29c3,16,13,32,21,35s14,11,14,19
		c0,7,10,23,23,35c18,17,30,20,60,15c37-6,46-16,27-28c-7-4,0-17,16-32c21-20,31-23,48-15c12,5,32,14,46,20c17,7,19,11,8,11
		c-44,2-25,55,25,70C7266,4897,7272,4894,7249,4855z M7774,4875c36-15,45-36,27-64c-5-7-13-11-19-7c-15,9-42-4-42-19c0-7-5-15-11-17
		s14-26,45-53c38-33,56-56,56-72c0-27,8-29,26-5c13,16,15,16,34-7c27-32,25-41-9-41c-44,0-46-16-8-52c27-26,36-44,40-80l6-46l-48-7
		c-48-6-91,5-91,25c0,5-12,10-26,12c-38,4-53,32-31,56c9,10,17,28,17,39c0,12,6,23,13,26c7,2-16,30-55,66c-54,50-68,69-68,92
		c0,19-5,29-15,29c-8,0-15,8-15,17c0,19,38,63,54,63c6,1,27,14,46,30c19,17,35,30,36,30S7754,4883,7774,4875z M6414,4726
		c17-13,59-40,94-61c57-33,62-39,62-71c0-46,23-90,57-106c17-8,30-25,35-45c5-18,13-33,17-33c5,0,16-3,25-6c11-4,16-1,16,10
		c0,8,11,23,25,32c32,21,31,27-5,64c-16,17-30,37-30,45c0,18,12,19,28,3c8-8,16-6,30,12c29,36,55,20,75-48c28-89,40-112,61-112
		c10,0,36-10,58-22c37-21,40-21,49-5c12,21,39,22,65,2c10-8,28-14,39-14s29,6,39,14c11,8,32,15,48,15c24,0,28-4,30-27
		c3-56-4-89-29-146c-34-76-50-86-124-80c-36,4-75,1-98-7c-36-11-45-9-169,39c-126,50-132,51-165,38c-46-20-70-53-55-80
		c16-31-27-52-51-23c-6,7-32,16-58,19c-29,3-52,12-62,24c-28,35-78,63-113,63c-21,1-44,11-66,29c-32,27-32,28-18,62
		c18,43,3,104-29,114c-27,9-91,6-140-7c-22-5-82-14-133-19c-98-9-121-17-162-54c-23-21-32-23-93-18c-62,5-68,8-65,27
		c3,23,34,41,95,56c45,11,129,82,118,100c-12,20,39,92,80,112c46,24,57,36,49,60c-8,26,41,43,85,29c30-9,39-7,77,19
		c58,41,79,39,103-9c24-46,68-85,128-113c40-19,93-69,93-87c0-5-9-20-21-34c-18-23-25-26-63-21c-67,10-67-12,0-41c31-14,58-25,60-25
		s4,14,4,30c0,22,5,30,18,30c10,0,26,13,35,30c14,24,16,34,7,51c-17,30,1,46,35,31c21-10,25-9,25,4c0,8-21,24-47,35
		c-27,11-52,27-56,35s-16,14-26,14c-18,0-53,34-89,87c-26,37-27,51-6,74c16,18,18,16,47-27C6369,4769,6397,4739,6414,4726z"/>
	<path class="st0" d="M2364,6062c-6-4-13-14-16-23c-4-9-36-27-71-40l-66-24l19-25c17-23,20-23,70-12c29,7,63,21,77,32
		c41,32,44,24,13-34c-17-30-30-57-30-61c0-3,14-11,30-16c17-6,30-17,30-25c0-18,23-18,58,0c53,26,190,36,258,17c25-7,38-4,63,11
		c36,23,36,22,15,52c-10,16-12,26-5,31c6,3,11,24,11,47c0,38-1,40-26,34c-14-4-36-19-49-34c-22-25-24-26-42-10c-10,9-41,20-69,23
		c-42,6-54,12-68,36c-17,28-19,29-104,29C2414,6070,2370,6066,2364,6062z"/>
	<path class="st0" d="M2987,6043c-4-3-7-15-7-25c0-20-11-23-27-7c-6,6-16,8-22,4c-7-4,0-17,19-36c32-33,43-33,111,2
		c24,12,38,27,41,44c5,24,4,25-52,25C3019,6050,2990,6047,2987,6043z"/>
	<path class="st0" d="M3146,6020c-13-17-53-49-87-71c-34-23-64-50-67-61c-4-16-11-19-37-14c-43,8-105-18-105-44c0-18-7-20-62-21
		c-94-2-111,1-134,22c-19,18-25,19-68,7c-25-7-46-18-46-25c0-10-25-13-102-12c-82,0-98,3-80,11c43,21,35,26-109,58c-32,7-69,10-83,6
		c-19-5-26-3-26,9s-5,13-27,4c-22-8-30-7-40,7c-8,11-18,14-30,9c-42-17-170-40-193-35c-14,3-41,0-60-7c-48-17-86-16-116,3
		c-16,11-61,19-132,25c-138,10-264,32-287,49c-13,10-155-20-275-58c-52-17-111-33-130-37c-65-12-71-16-65-36c3-10,8-28,11-39
		c4-17,1-20-25-20c-17,0-31,4-31,9s-37,0-82-13c-63-17-83-27-89-44c-7-18-4-23,16-28c14-3,43-4,65-2c31,3,39,0,35-10c-3-8-5-17-5-22
		c0-4-21-10-47-13c-128-13-230-56-266-111c-27-41-22-57,14-49l31,6l-17-27c-16-23-16-26-1-20c20,8,86-4,86-15c0-8-390-161-412-161
		c-7-1-24-7-38-15c-25-14-25-14,10-9c119,19,323,78,394,114c43,22,89,40,101,40c31,0,117,28,139,45c16,12,17,17,6,30s-9,15,14,15
		c14,0,49,9,78,20c28,11,53,18,55,16s-15-15-37-30c-22-14-40-28-40-30c0-7,128,24,176,42c48,19,51,19,84,2c19-10,58-21,87-25
		c74-10,87-33,80-137l-5-78h34c32,0,33-1,23-27c-7-17-8-55-4-97l6-69l-25,7c-39,10-38-23,2-66c27-28,33-40,24-50c-5-7-20-38-32-68
		s-46-82-75-116c-30-33-57-74-61-90s-18-45-33-64c-30-41-32-68-18-203l11-99l42-29c48-33,50-37,60-134c4-38,13-84,21-103
		c13-31,12-35-3-47c-15-11-15-15-3-32c8-11,28-32,45-46c24-20,30-33,27-51c-4-18,4-36,26-63c17-21,31-43,31-50s5-13,10-13
		c21,0,22,33,3,74c-11,22-23,55-27,73c-4,17-22,70-41,117c-25,64-32,95-28,121c3,19,7,35,9,35c1,0,14-4,27-9c20-8,25-18,30-62
		c5-36,17-69,42-106c21-31,35-65,35-83c0-23,15-48,60-101c49-57,60-76,60-105c0-19-4-43-9-52s-5-26-1-38c10-25,100-94,123-94
		c9,0,20-6,24-14c12-20,150-87,181-88c15,0,44,3,65,7c36,7,40,6,86-42c47-49,58-54,179-86c30-8,44-18,48-34c3-12,14-29,25-39
		c10-9,19-28,19-41c0-31,102-127,138-130c14-1,35-12,48-24c27-26,59-19,51,11c-6,23,26,55,48,46c8-3,18-14,21-23c3-10,12-30,20-45
		c17-32,19-170,2-201c-6-12-19-28-30-35c-10-7-18-22-18-33s-10-24-22-30c-32-14-72-118-59-152c5-14,15-28,20-32c7-4,2-18-15-40
		c-24-31-24-36-13-77c7-24,25-56,40-73c15-16,39-55,54-85s40-73,55-95s48-81,73-132c46-91,47-92,154-168c59-43,110-79,111-81
		c2-1,12-51,23-111c12-74,18-158,19-266c0-116,4-173,17-218c14-52,15-77,6-187c-9-113-8-131,7-162c9-19,20-60,24-90
		c9-81,25-130,42-130c10,0,13,7,8,25c-4,14-2,25,4,25s15-23,21-50c14-64,14-63-3-57c-21,8-42-19-28-36c7-8,9-29,5-50
		c-4-29-2-37,9-37c25,0,41-26,29-48c-8-16,0-34,45-100c31-45,84-107,118-140c59-54,68-60,161-84l98-25l34,19c18,11,33,23,33,27
		s-25,15-54,25c-42,12-65,28-97,64c-52,59-61,82-43,103c8,9,12,23,8,32c-3,9,4,33,17,54c15,24,19,38,11,41c-6,2-22,12-36,23
		c-30,24-37,85-11,95c10,4,15,20,15,44c0,21,7,43,15,50c21,17,19,30-4,30c-20,0-51,35-51,57c0,8,13,12,35,11c43-2,68,18,61,48
		c-10,37,3,54,39,54c64,0,95,12,110,41c22,42,19,96-5,109c-11,6-23,22-26,35c-3,14-13,25-22,25c-12,0-13,3-4,12c9,9,16,7,31-6
		c11-10,38-20,61-23c33-5,45-2,65,17c25,24,75,136,75,170c0,13,7,20,19,20c36,0,66,66,68,150c1,41,2,78,2,81c2,14,143,100,190,116
		c80,25,113,76,136,207c10,56,19,135,20,177c2,73,4,79,47,140c25,35,62,99,81,142c36,77,36,77,20,122c-12,36-22,49-49,60
		c-19,8-61,38-93,66l-58,53l-84,2c-46,2-92,4-101,4c-11,1-18,9-18,23c-1,17-14,28-62,50c-55,25-63,26-78,12c-23-21-30-19-30,8
		c0,14-11,28-30,39c-25,14-29,22-24,42c4,17,0,28-14,38c-11,7-23,31-27,53c-10,52-12,56-63,99c-38,31-51,36-95,36
		c-65,0-152,43-166,80c-5,15-25,33-48,45c-22,11-44,28-49,40c-5,11-21,26-36,33c-30,14-35,27-15,36c6,3-10,3-38,0c-27-3-53-10-56-15
		c-3-6-21-3-42,6c-20,8-52,15-72,15c-42,0-90,22-99,46c-5,14-12,10-41-22c-19-21-34-50-35-63c0-20-2-22-15-11c-11,9-13,16-5,24
		c5,5,10,22,10,38c0,15,7,31,15,35c8,5,11,14,7,20c-6,9-20,4-52-17c-24-16-58-32-75-36c-33-7-54-29-55-56c0-10-13-32-28-50l-29-31
		l-36,29c-29,22-45,28-74,25c-21-1-46-7-57-13c-41-22-106,48-106,113c0,19,7,65,17,103l16,68l-24,19c-19,15-42,19-111,19h-87l26,63
		c14,34,34,87,45,117c12,30,25,60,29,66c6,8-5,13-37,18c-63,8-98-11-116-66c-14-42-16-43-87-62c-84-22-107-15-144,43
		c-44,70-47,106-15,200c15,47,28,101,28,122c0,35,4,39,93,98c76,50,100,61,134,61c23,0,45-4,48-10c11-17,48-11,72,12
		c30,28,150,36,160,11c4-11,15-13,38-9c25,5,36,1,55-19c20-22,23-30,14-53c-12-30-2-81,23-118c40-62,68,5,58,140l-6,91l48,52
		c26,29,80,72,118,97c39,25,87,62,108,83c32,32,37,43,33,71c-3,23-1,32,10,32c8,0,22,15,31,34s21,32,28,30c7-3,26,12,43,33
		c22,29,45,43,85,56c29,9,61,17,69,17c21,0,42,26,29,35c-16,9,29,73,59,84c14,5,63,23,110,40c83,30,84,30,56,7c-39-32-30-59,14-46
		c18,5,37,14,44,19c6,5,32,15,58,21c26,7,54,21,64,31c9,10,25,19,36,19c13,0,18,7,18,25c0,15-6,25-14,25s-23-11-34-25
		c-27-34-85-35-107-2c-14,22-13,27,11,71c22,40,24,50,13,57c-23,15-46,10-117-21l-67-30l35,30c19,17,41,30,49,30s23,8,34,18
		c15,14,45,18,151,23c122,5,135,8,194,37c34,18,62,29,62,24c0-4-34-41-75-82s-75-78-75-82c0-5,29-8,64-8c36,0,68-5,71-11
		c4-6,13-8,21-5c7,3,18-2,23-11c8-15,11-15,35,0c21,14,24,21,16,41c-5,13-6,33-3,45c4,18,1,21-23,21c-36,0-61,42-38,61
		c8,6,11,15,8,20s4,22,15,38c20,27,20,31,5,75c-9,26-25,51-38,57c-11,6-33,23-48,37c-21,19-25,29-17,43c10,20-8,159-22,159
		c-4,0-20-11-36-24c-15-13-47-33-69-44c-41-21-42-21-62-2c-23,21-20,57,6,77c13,11,11,14-11,22c-15,6-40,25-56,43
		c-21,23-33,30-40,22c-7-6-33-8-67-4c-55,6-56,6-80-29c-13-20-24-43-24-51c0-9-18-34-40-55c-33-32-37-41-25-48c18-10,19-27,4-60
		c-12-26-101-83-139-89c-21-3-27-11-39-64s-18-63-51-82l-38-21l-6,23c-3,13-9,31-12,40c-4,12-2,15,9,10c8-3,18-1,22,5c3,6-1,11-9,11
		c-21,0-20,18,4,58l20,32h-33c-17,1-50,9-72,20s-46,19-52,20c-7,0-13,4-13,10c0,17-50,43-81,42c-27-1-29,2-29,39c0,30-4,39-17,39
		c-37,0,55,73,158,125c58,29,111,60,118,69c8,9,22,16,31,16c26,0,110,37,147,66c17,13,35,24,39,24c13,0-59-71-81-80c-16-7-17-9-3-9
		c9-1,18-8,20-16c3-13,9-12,42,6c32,17,44,19,63,10c33-15,63-14,63,3c0,7-20,30-45,50c-50,41-59,62-20,44c19-9,28-9,37,0
		c7,7,21,12,33,12c27,0,85,36,85,53c0,8,9,22,20,32c14,13,17,22,10,29c-21,21-8,26,73,26c66-1,86-4,105-20c28-24,21-40-18-40
		c-30,0-64-25-55-41c10-15,48-10,69,10c31,29,60,31,64,4c3-18-6-27-42-45c-31-15-46-28-46-41c0-18-5-19-60-14c-47,4-65,2-81-12
		c-18-15-19-18-6-29c12-10,23-9,56,4c40,16,43,16,62-2c12-11,27-31,34-45c11-20,30-30,84-46c78-23,88-17,50,31c-26,33-11,33,38,1
		c36-25,37-25,44-6c4,10,16,24,25,29c19,10,19,11-31,78c-7,10-4,19,8,31c17,17,19,17,45-15c29-34,56-42,66-17c3,8,15,15,26,15
		c12,0,30,8,41,19c20,18,20,18-17,50c-23,20-44,31-55,28c-28-7-45,19-25,38c9,9,16,22,16,29c0,17-33,46-52,46c-9,0-18,7-22,15
		c-3,8-16,15-30,15c-15,0-34,12-52,32c-25,31-32,33-108,39c-87,7-153-6-187-37c-16-15-19-15-19-2c0,9,10,23,23,31c21,16,22,16,1,16
		c-37,1-108-29-146-62c-30-27-35-36-27-54c6-17,16-23,40-23s30-3,25-16c-3-9-6-17-6-19c0-7-98-73-118-79c-27-9-31,18-6,32
		c22,12,14,46-13,50c-17,3-22,11-25,50c-6,58,2,69,55,77c23,4,60,18,82,31l40,24h-72C3176,6050,3170,6048,3146,6020z"/>
	<path class="st0" d="M5126,5731l-28-19l22-12c12-6,28-9,36-6c9,3,14-1,14-13c0-10,11-24,25-31s25-18,25-23c0-11,66-1,139,21
		c64,20,87,52,55,77c-10,8-30,13-44,10c-93-16-161-17-185-1C5155,5753,5161,5754,5126,5731z"/>
	<path class="st0" d="M5750,5425c-7-9-19-14-27-11s-28-4-45-17c-37-27-53-64-37-83c9-11,8-14-2-14c-9-1-6-8,9-19c12-11,22-24,22-30
		s11-11,24-11c18,0,27-8,34-29c10-27,8-29-19-35c-27-5-42-26-19-26c20,0,9-18-15-24c-32-8-32-26-1-26c14,0,28-4,31-10c3-5,0-10-8-10
		c-13,0-57-40-57-52c0-9,59,9,75,22c7,6,44,9,82,8c75-2,98,6,89,29c-3,8,1,21,9,30c21,20,14,37-16,43c-13,3-25,11-27,19
		c-4,19-62,103-81,118c-14,10-14,13,2,30c24,27,21,43-7,43c-29,0-43,15-22,23c17,7,41,47,28,47C5767,5440,5757,5433,5750,5425z"/>
	<path class="st0" d="M5548,5244c-8-18-17-24-31-20c-26,6-41-34-19-52c15-11,14-14-6-28c-54-38-7-61,69-34c57,19,69,32,69,72
		c0,15,5,30,10,33c22,14,10,43-21,49C5569,5274,5560,5271,5548,5244z"/>
	<path class="st0" d="M10736,3831c-21-40-20-70,4-105l19-30l10,27c19,48,21,71,13,101C10771,3865,10754,3867,10736,3831z"/>
	<path class="st0" d="M2338,3730c-16-12-28-30-28-41c0-26,15-24,37,4c30,38,40,39,106,16c72-25,97-44,97-73c0-41,12-46,83-39
		c37,3,75,11,84,18c15,11,12,14-19,24c-19,6-48,25-63,41c-35,36-99,57-198,65C2374,3750,2362,3748,2338,3730z"/>
	<path class="st0" d="M2775,3588c7-31-4-46-39-50c-50-5-44-28,8-28c25,0,46-4,46-10c0-16,32-11,45,7c8,10,32,18,69,21
		c31,2,56,8,56,13c0,4-15,19-33,33c-23,18-44,25-72,24c-22-1-50,2-63,6C2772,3611,2770,3609,2775,3588z"/>
	<path class="st0" d="M10322,3603c-12-2-27-13-32-23c-25-48,36-71,66-25c15,24,14,57-3,54C10349,3608,10335,3605,10322,3603z"/>
	<path class="st0" d="M10808,3549c-11-6-18-22-18-42c0-18-7-45-15-60c-18-35-9-84,17-98c14-7,18-17,14-32c-3-13,3-31,14-44
		c24-30,30-29,30,7c0,29,1,29,27,17c15-6,44-30,64-52c32-34,35-41,22-49c-10-6-25-3-43,8c-16,9-31,16-34,16c-14,0-5-51,12-68
		c10-10,21-26,25-35c7-18,24-21,51-11c21,8,20,23-1,46c-15,17-15,20-3,28c23,15,32,7,46-41c13-41,12-45-8-60c-11-9-29-14-39-12
		c-22,6-54-26-63-63c-6-27-5-28,9-10c8,11,25,20,39,22c20,2,25-3,30-31c4-22,18-42,36-55l30-21v36c0,29,4,35,18,33c11-2,16,2,13,12
		c-1,8-4,38-5,67c-1,38-7,58-24,76c-12,13-22,36-22,51c0,40-16,64-50,71c-26,6-29,10-24,34s2,29-23,39c-15,6-39,12-53,14
		c-21,3-25,9-28,40c-2,20,1,46,7,56c7,13,7,32,0,58C10845,3547,10830,3562,10808,3549z"/>
	<path class="st0" d="M10667,2960c-10-21-33-48-52-60c-18-11-46-35-62-53s-40-37-55-44s-34-26-43-44c-15-28-20-31-52-26
		c-27,5-34,3-29-8c3-8,1-17-4-20c-16-10-11-58,10-93c11-18,20-48,20-66c0-43,22-60,70-58c21,2,55-4,76-13c43-18,77-19,106-4
		c16,9,19,17,14,44c-6,28-2,38,24,65c22,22,30,40,30,65c0,29,4,36,25,41c30,7,31,14,5,47c-27,34-25,75,5,119c14,20,25,43,25,50
		c0,12-79,98-90,98C10687,3000,10677,2982,10667,2960z"/>
	<path class="st0" d="M9776,2913c-13-13-5-29,23-45c17-9,41-34,55-56s34-43,45-47c11-3,27-18,35-33c39-75,69-143,86-195
		c20-63,76-125,140-153c33-15,35-15,53,7c11,13,16,31,13,44c-3,12,3,38,14,58l20,37h-25c-14,0-25,5-25,10c0,6-19,28-41,50
		c-32,31-39,43-31,53c9,10,2,21-31,48c-23,19-59,45-79,58c-21,12-46,36-55,53c-13,21-45,43-104,74C9821,2899,9780,2916,9776,2913z"
		/>
	<path class="st0" d="M11005,2719c-24-14-40-16-80-9c-80,14-91,12-103-15c-7-14-12-37-12-50s-9-44-20-69c-15-37-17-52-9-74
		c6-15,11-48,10-74c-1-49,8-58,39-38c11,7,14,25,13,70c-2,57,7,75,24,48c4-7,8-17,8-23c3-29,20-71,34-81c39-30,55,26,24,88
		c-9,18-20,41-25,51c-7,14-3,23,16,38c15,11,26,25,26,30c0,13-47,11-71-3c-17-11-22-10-35,7c-34,46,4,89,58,65c70-30,144-10,136,37
		C11035,2736,11034,2736,11005,2719z"/>
	<path class="st0" d="M11283,2623c-13-2-23-8-23-12c0-11,34-41,47-41c14,0,48-39,40-46c-12-12,23-64,41-61c23,3,153-42,174-60
		c25-22,35-93,14-105c-24-14-19-28,9-28c14,0,48-11,75-25c69-35,92-32,141,15c23,22,45,40,50,40c4,0,29-25,55-55c35-41,60-59,96-71
		c26-8,53-14,60-12c6,2-16,32-49,67c-67,68-84,101-52,101c10,0,19,6,19,14c0,19-47,56-71,56c-12,0-19,7-19,19c0,11-15,31-32,44
		c-63,47-243,127-286,127c-8,0-33-21-57-47l-43-46l-36,39c-29,31-35,44-30,67c6,27,5,27-48,26C11329,2628,11295,2625,11283,2623z"/>
	<path class="st0" d="M10245,2373c-48-12-60-43-16-43c17,0,43-11,61-26c25-21,50-29,133-41c56-8,120-21,141-28c33-12,46-12,79,0
		c30,10,46,11,60,3c11-5,45-8,76-6c31,3,69,1,86-3c17-5,43-5,60,0c16,5,48,12,70,16l40,6l-40-27c-22-15-41-28-41-28c-1-1-5-12-9-25
		c-6-21,0-18,47,22c30,25,67,51,83,57c27,10,28,13,12,21c-12,7-35,6-72-2c-41-9-61-9-80-1c-19,9-32,8-57-2c-26-11-45-12-88-4
		c-30,6-82,12-115,13c-110,3-176,24-130,41c26,10,5,24-36,24c-22,0-51,7-65,17c-24,15-25,15-31-5c-8-32-66-30-105,3
		c-16,14-33,24-36,24C10268,2378,10256,2375,10245,2373z"/>
	<path class="st0" d="M11303,2110c6-26,3-30-21-35c-15-4-34-10-42-14c-19-10-60-82-54-93c3-4,4-8,2-8s-18-4-36-9c-30-9-34-7-44,15
		c-22,47-83,41-90-9c-2-16-9-21-25-19c-13,2-23-2-23-8s-16-26-35-46c-28-28-36-32-41-19s-9,12-25-6c-11-12-19-30-19-40
		c0-40-58-86-146-118c-47-17-92-31-100-31c-9,0-36-15-62-32c-26-18-54-33-62-33c-10,0-16-13-18-42c-2-23-9-47-17-53c-9-8-12-22-8-41
		c4-22,1-33-12-43c-15-11-16-16-5-35c7-14,12-70,13-140c2-95-1-124-17-159c-10-23-25-42-33-42c-25,0-14-39,17-55c41-21,60-19,123,15
		c48,25,68,30,127,30c39,0,70,4,70,10c0,32,202,95,302,93c87-1,172-66,152-117c-11-28,25-32,49-4c27,31,77,62,77,48c0-5-13-22-30-37
		c-36-32-40-52-5-29c31,21,34,20,28-4c-3-11-23-27-44-37c-41-18-48-27-25-36c8-3,24,5,37,19c32,34,42,30,36-15c-7-54,20-96,70-110
		c52-15,78-14,93,4c16,19,30,19,30,1c0-7,6-19,13-25c11-8,24-3,58,23c26,20,60,36,83,39c21,3,41,9,45,14c32,49,175,212,194,222
		c41,22,107,146,137,256l27,101l-28,39c-15,22-31,52-34,67c-4,16-16,34-27,42c-12,9-21,28-23,48c-2,21-16,48-40,76
		c-39,45-65,112-65,168c0,52-17,86-39,79c-16-5-20,1-26,37c-27,170-49,169-79-7c-17-98-59-185-88-185c-21,0-69,28-81,47
		c-4,7-27,31-52,54l-43,41l29,44c17,24,34,46,40,49c11,8,11,16,0,34c-7,11-15,11-43,1c-30-11-39-10-75,9c-23,11-44,25-48,31
		C11311,2152,11298,2139,11303,2110z"/>
	<path class="st0" d="M7829,2053c-15-16-40-49-57-74c-23-35-45-52-86-70c-68-29-93-72-76-129c16-54,12-90-14-134c-15-26-25-60-26-91
		c-4-71-3-73,26-100c59-55,130-16,158,87c26,98,55,197,78,266c11,34,17,70,14,78c-4,11,1,18,14,21c17,5,20,14,20,67
		c-1,33-6,71-13,84l-13,22L7829,2053z"/>
	<path class="st0" d="M12656,972c-3-20-6-49-6-64c0-43-30-96-62-109c-26-11-27-13-13-29c21-23,19-36-7-54c-28-20-38-20-38-1
		c0,13-4,14-21,5c-11-6-25-9-32-7s-30-10-52-27c-22-18-70-48-106-68s-107-61-158-93l-93-57l31-19c31-19,32-19,69,0
		c21,11,64,39,97,64c33,24,74,48,92,51c19,5,35,15,38,27c4,10,21,26,38,35c18,9,42,25,54,36c13,12,38,21,60,22c44,2,128,54,138,86
		c3,11,15,20,25,20c19,0,80,54,80,72c0,6-8,7-17,3c-33-13-48-10-58,13c-5,12-13,22-18,22s-5,20-2,44c6,38,4,46-13,55
		S12662,1005,12656,972z"/>
	<path class="st0" d="M11381,675c-26-83-26-83,2-87c38-7,93,31,122,83l26,49l-46-6c-35-5-50-3-64,11C11402,741,11401,740,11381,675z
		"/>
</g>
</svg>
